# xmcd CD database file
#
# Track frame offsets:
#	150
#	17117
#	23510
#	45037
#	62470
#	76840
#	95112
#	118015
#	132805
#	151710
#	167209
#	184712
#
# Disc length: 2719 seconds
#
# Revision: 2
# Processed by: cddbd v1.5.1PL0 Copyright (c) Steve Scherf et al.
# Submitted via: NeoAudio 9.9.9
#
DISCID=820a9d0c
DTITLE=Various Artist - SETANEJO VOL 1
DYEAR=1900
DGENRE=Country
TTITLE0=TOMA JUIZO - ZEZE DI CAMARGO and LUCIANO
TTITLE1=CABELO LOITO - ALMIR SATER
TTITLE2=PANELA VELHA - SERGIO REIS
TTITLE3=CORAÇÃO ESTÁ EM PEDAÇOS - ZEZE DI CAMARGO
TTITLE4=EU NÃO DESISTO DE VOCE - LUCA $ MATHEUS
TTITLE5=VEM FICAR COMIGO - ZEZE DI CAMARGO and LUCIANO
TTITLE6=PENSE EM MIM - É O AMOR - ENTRE TAPAS E BEIJOS - BANDA MEL
TTITLE7=SAUDADE DE MINHA TERRA - SERGIO REIS
TTITLE8=SERÁ QUE FOI SAUDADE? - ZEZE DI CAMARGO and LUCIANO
TTITLE9=QUANDO A SAUDADE APERTA - TEODORO and SAMPAIO
TTITLE10=MORENINHA LINDA - ALMIR SATER
TTITLE11=MENINA VENENO - ZEZE DI CAMARGO and LUCIANO
EXTD=
EXTT0=
EXTT1=
EXTT2=
EXTT3=
EXTT4=
EXTT5=
EXTT6=
EXTT7=
EXTT8=
EXTT9=
EXTT10=
EXTT11=
PLAYORDER=
